<?xml version="1.0" standalone="no"?>
<!DOCTYPE svg PUBLIC "-//W3C//DTD SVG 20010904//EN"
 "http://www.w3.org/TR/2001/REC-SVG-20010904/DTD/svg10.dtd">
<svg version="1.0" xmlns="http://www.w3.org/2000/svg"
 width="500.000000pt" height="500.000000pt" viewBox="0 0 500.000000 500.000000"
 preserveAspectRatio="xMidYMid meet">

<g transform="translate(0.000000,500.000000) scale(0.100000,-0.100000)"
fill="#000000" stroke="none">
<path d="M2475 3653 c-70 -15 -95 -46 -95 -117 0 -61 9 -76 46 -76 l34 0 0 60
0 59 36 7 c34 6 380 -10 452 -22 31 -5 32 -6 32 -54 l0 -50 -102 0 c-56 0 -99
-2 -97 -4 11 -9 329 -16 329 -6 0 5 -12 10 -27 10 -28 0 -28 0 -25 64 6 107
11 105 -313 126 -172 10 -234 11 -270 3z"/>
<path d="M2144 3549 c-48 -50 -156 -126 -227 -160 l-67 -31 15 -29 c9 -16 24
-29 34 -29 46 0 253 136 301 197 19 24 19 27 3 54 -10 16 -20 29 -23 29 -4 0
-19 -14 -36 -31z"/>
<path d="M2638 3463 c23 -2 61 -2 85 0 23 2 4 4 -43 4 -47 0 -66 -2 -42 -4z"/>
<path d="M3355 3454 c-17 -17 -18 -80 -3 -124 13 -37 67 -88 105 -101 27 -9
32 -14 23 -24 -7 -8 -8 -20 -4 -27 6 -10 5 -11 -7 -1 -13 11 -20 8 -39 -12
-19 -20 -91 -45 -130 -45 -6 0 -10 26 -10 58 0 31 -3 108 -7 170 l-6 112 -36
0 -36 0 5 -172 c3 -95 5 -174 4 -175 0 -1 -24 -9 -54 -16 -45 -12 -49 -15 -29
-20 13 -4 34 -7 47 -7 21 0 22 -4 22 -75 l0 -74 -40 5 c-50 7 -64 -15 -30 -50
l22 -24 -41 -7 c-62 -10 -60 -25 4 -25 l56 0 -15 -27 c-8 -16 -24 -38 -36 -51
-12 -13 -20 -26 -17 -28 3 -3 18 12 33 33 41 54 54 63 94 60 32 -2 35 0 32 23
-3 30 56 79 70 57 5 -8 8 -5 8 8 1 19 46 77 83 104 21 17 97 32 97 20 0 -5 3
-8 8 -8 4 1 9 0 12 -1 18 -7 57 -6 67 2 10 8 9 16 -4 39 -16 28 -16 29 7 54
23 25 23 25 4 39 -17 13 -22 12 -43 -7 l-24 -22 7 30 c4 16 24 50 44 73 77 91
123 155 119 166 -5 13 -43 9 -79 -10 -14 -7 -43 -34 -63 -59 -21 -25 -40 -45
-44 -45 -4 0 -13 28 -20 62 -13 65 -33 112 -52 124 -6 3 -4 -4 4 -17 17 -26
50 -145 45 -160 -3 -10 -35 10 -80 53 -40 38 -39 115 2 131 8 3 -2 6 -22 6
-21 1 -43 -6 -53 -15z m-138 -501 c-2 -21 -4 -4 -4 37 0 41 2 58 4 38 2 -21 2
-55 0 -75z m98 88 c6 -20 -13 -61 -27 -61 -5 0 -8 18 -8 40 0 43 23 57 35 21z"/>
<path d="M2310 3451 c0 -5 -15 -26 -34 -46 -29 -30 -37 -48 -45 -105 -6 -38
-11 -87 -11 -109 0 -41 0 -41 -38 -41 -34 0 -39 3 -47 33 -8 24 -16 32 -32 31
-20 0 -20 1 -5 25 l16 26 -25 -22 c-14 -13 -30 -23 -37 -23 -6 0 -15 -15 -20
-32 -8 -31 -11 -33 -56 -36 -48 -3 -116 -37 -144 -71 -45 -55 -92 -281 -92
-446 0 -49 -4 -75 -12 -78 -10 -4 -10 -6 0 -6 7 -1 12 -14 12 -31 0 -23 -4
-30 -20 -30 -22 0 -23 -3 -22 -180 0 -158 0 -158 25 -165 12 -4 29 -16 37 -26
23 -29 120 -38 355 -34 230 4 261 8 268 35 3 11 16 20 33 22 l29 3 3 173 c2
145 0 172 -12 172 -15 0 -15 -5 -36 225 -21 231 -51 343 -105 390 -24 22 -24
18 5 180 5 28 9 74 9 103 1 45 4 54 24 62 l22 9 -22 0 c-13 1 -23 -3 -23 -8z
m-210 -273 c0 -21 -5 -28 -20 -28 -14 0 -20 7 -20 23 0 28 5 34 25 34 10 0 15
-10 15 -29z"/>
<path d="M2382 3385 c0 -16 2 -22 5 -12 2 9 2 23 0 30 -3 6 -5 -1 -5 -18z"/>
<path d="M3300 3358 c1 -37 61 -138 83 -138 5 0 -5 16 -22 35 -16 19 -35 53
-41 75 -11 39 -20 53 -20 28z"/>
<path d="M2401 3324 c0 -11 3 -14 6 -6 3 7 2 16 -1 19 -3 4 -6 -2 -5 -13z"/>
<path d="M2519 3288 l-33 -43 42 40 c45 42 47 45 33 45 -5 0 -24 -19 -42 -42z"/>
<path d="M2560 3279 c-25 -16 -55 -34 -67 -39 -13 -5 -23 -14 -23 -19 0 -22
118 -196 132 -195 8 1 40 18 72 38 l57 37 -53 101 c-30 56 -58 103 -63 105 -6
2 -30 -11 -55 -28z m125 -109 c14 -27 25 -54 25 -59 0 -10 -91 -71 -107 -71
-6 0 -27 28 -48 63 -21 34 -45 72 -53 85 -8 12 -12 22 -9 22 4 0 19 -21 34
-47 l28 -48 3 32 c4 42 25 59 43 36 13 -17 13 -17 -5 -3 -18 14 -19 13 -13 -2
3 -10 2 -20 -4 -23 -5 -4 1 -15 15 -26 26 -21 37 -24 34 -10 -2 5 2 9 7 9 6 1
13 11 17 24 6 21 6 22 7 2 1 -11 -8 -29 -20 -39 -17 -16 -25 -17 -50 -8 -17 7
-29 9 -27 5 2 -4 10 -19 17 -34 8 -16 18 -28 22 -28 14 0 99 54 99 63 0 4 -11
30 -25 57 -14 28 -23 50 -20 50 2 0 16 -22 30 -50z"/>
<path d="M2361 3218 c2 -86 6 -76 11 25 2 31 0 57 -4 57 -5 0 -7 -37 -7 -82z"/>
<path d="M3304 3261 c1 -16 5 -33 9 -38 5 -4 5 1 1 12 -7 18 -6 19 11 5 17
-14 18 -14 1 18 -20 40 -24 40 -22 3z"/>
<path d="M2595 2870 c-3 -5 -1 -10 4 -10 6 0 11 5 11 10 0 6 -2 10 -4 10 -3 0
-8 -4 -11 -10z"/>
<path d="M2747 2733 c-4 -3 -7 -11 -7 -17 0 -6 5 -5 12 2 6 6 9 14 7 17 -3 3
-9 2 -12 -2z"/>
<path d="M2730 2689 c0 -5 5 -7 10 -4 6 3 10 8 10 11 0 2 -4 4 -10 4 -5 0 -10
-5 -10 -11z"/>
<path d="M2695 2650 c-10 -11 -15 -20 -11 -20 11 0 39 30 34 36 -3 2 -13 -5
-23 -16z"/>
<path d="M2642 2619 c2 -7 15 -14 28 -16 27 -4 25 -1 -9 17 -19 9 -22 9 -19
-1z"/>
<path d="M3001 2596 c-14 -17 -5 -43 20 -56 24 -13 26 -13 31 8 12 44 -25 79
-51 48z m39 -16 c0 -11 -6 -20 -13 -20 -19 0 -27 10 -20 26 8 21 33 17 33 -6z"/>
<path d="M2708 2593 c7 -3 16 -2 19 1 4 3 -2 6 -13 5 -11 0 -14 -3 -6 -6z"/>
<path d="M2775 2590 c-3 -5 1 -10 10 -10 9 0 13 5 10 10 -3 6 -8 10 -10 10 -2
0 -7 -4 -10 -10z"/>
<path d="M2565 2560 c-3 -5 -1 -10 4 -10 6 0 11 5 11 10 0 6 -2 10 -4 10 -3 0
-8 -4 -11 -10z"/>
<path d="M3573 2495 c0 -33 2 -45 4 -27 2 18 2 45 0 60 -2 15 -4 0 -4 -33z"/>
<path d="M2545 2524 c-15 -16 -15 -19 8 -42 27 -26 47 -23 47 9 0 17 -3 18
-20 7 -22 -14 -35 -6 -26 18 4 9 12 14 22 10 8 -3 12 -2 9 4 -9 14 -21 12 -40
-6z"/>
<path d="M2888 2439 c-23 -13 -23 -24 2 -49 30 -30 42 -25 38 17 -3 40 -13 48
-40 32z m32 -25 c0 -14 -21 -19 -33 -7 -9 9 13 34 24 27 5 -3 9 -12 9 -20z"/>
<path d="M3342 2378 c-17 -17 -15 -24 10 -48 31 -29 40 -25 36 17 -3 40 -23
54 -46 31z m38 -18 c0 -11 -6 -20 -14 -20 -18 0 -29 16 -21 30 11 18 35 11 35
-10z"/>
<path d="M2592 2311 c-19 -12 -11 -41 15 -58 20 -14 23 -14 29 1 9 22 -4 66
-19 66 -6 0 -18 -4 -25 -9z m33 -22 c0 -7 -8 -15 -17 -17 -18 -3 -25 18 -11
32 10 10 28 1 28 -15z"/>
<path d="M1417 2092 c-41 -3 -47 -5 -37 -18 7 -8 26 -14 42 -14 26 0 29 -3 22
-22 -23 -74 -32 -158 -15 -158 5 0 17 36 27 80 10 44 21 85 25 91 5 9 29 15
83 18 5 1 6 4 3 8 -11 10 -95 18 -150 15z"/>
<path d="M3634 2055 c-3 -8 -12 -34 -18 -57 -9 -29 -21 -47 -38 -55 -16 -8
-35 -35 -53 -75 -23 -53 -29 -60 -35 -43 -5 11 -9 36 -9 56 -1 22 -7 39 -15
42 -15 6 -33 -30 -56 -115 -16 -62 -30 -52 -30 21 0 82 -11 181 -21 181 -4 0
-9 -28 -11 -62 -3 -72 -19 -84 -64 -49 -29 23 -42 25 -63 12 -32 -21 -6 -161
30 -161 17 0 47 43 53 76 6 29 29 54 52 54 3 0 4 -11 2 -25 -7 -33 8 -114 24
-132 22 -26 48 20 49 86 0 31 3 49 6 41 21 -64 44 -79 73 -48 11 12 20 16 20
10 0 -7 9 -12 19 -12 16 0 25 17 48 88 l28 87 5 -50 c3 -27 2 -65 -3 -83 -9
-38 -6 -87 6 -87 5 0 10 43 12 95 1 52 6 123 10 158 5 45 4 62 -4 62 -6 0 -14
-7 -17 -15z m-63 -175 c-20 -45 -31 -59 -31 -41 0 21 29 81 39 81 6 0 2 -18
-8 -40z m-291 0 c7 -13 6 -20 -4 -23 -8 -3 -17 1 -20 9 -3 8 -13 14 -22 14
-13 0 -14 3 -4 14 14 17 37 11 50 -14z m0 -70 c-16 -38 -30 -39 -30 -1 0 20 6
31 18 33 25 6 26 2 12 -32z"/>
<path d="M4053 2027 c-13 -18 -23 -42 -23 -53 0 -10 -12 -27 -25 -37 l-25 -18
0 41 c0 51 -25 54 -60 8 l-25 -33 -5 29 c-9 52 -25 29 -32 -44 -3 -39 -9 -83
-13 -98 -7 -25 -8 -25 -15 -7 -5 11 -9 53 -9 93 -1 39 -4 72 -7 72 -3 0 -15
-5 -27 -12 -12 -7 -31 -11 -43 -9 -22 2 -35 -20 -50 -82 -6 -26 8 -57 27 -57
5 0 23 30 41 68 l32 67 7 -84 c5 -64 11 -88 24 -97 24 -18 35 -9 35 25 0 57
12 91 31 91 11 0 19 6 19 13 0 6 9 23 20 37 l20 25 0 -41 c0 -22 -8 -58 -19
-80 -29 -60 -35 -109 -16 -128 36 -36 56 -7 59 88 3 87 18 112 96 149 25 11
48 23 53 25 19 10 3 -33 -28 -74 -34 -44 -47 -94 -24 -94 26 0 47 23 63 67 10
26 32 61 49 77 l32 28 -26 -6 c-18 -4 -31 -1 -40 10 -12 14 -31 14 -72 -2 -19
-7 -12 29 9 47 17 14 18 29 2 29 -7 0 -23 -15 -35 -33z m-293 -92 c0 -2 -9
-19 -20 -37 -22 -36 -27 -25 -8 17 10 21 28 35 28 20z m356 -69 c-14 -34 -36
-49 -36 -25 0 14 41 72 47 66 2 -3 -3 -21 -11 -41z m-160 -112 c-4 -13 -11
-24 -16 -24 -14 0 -12 53 2 87 l12 28 4 -34 c2 -19 1 -44 -2 -57z"/>
<path d="M1636 2003 c-4 -5 -20 -8 -34 -8 -23 0 -32 -9 -54 -54 -48 -93 -27
-129 22 -39 40 72 70 100 70 63 0 -9 6 -12 16 -8 8 3 14 15 12 26 -3 22 -20
32 -32 20z"/>
<path d="M2027 1993 c-46 -5 -45 -27 2 -31 l32 -3 -7 -90 c-4 -55 -3 -89 3
-89 9 0 33 106 33 148 0 29 27 52 61 52 16 0 29 5 29 10 0 10 -73 11 -153 3z"/>
<path d="M1774 1951 c-7 -45 -63 -121 -64 -86 0 11 4 34 9 52 7 23 5 37 -4 50
-13 17 -15 15 -29 -19 -19 -43 -20 -72 -6 -99 13 -24 28 -24 53 -2 18 17 19
16 17 -32 -2 -69 -2 -75 11 -75 6 0 10 12 9 28 -4 51 0 62 19 62 22 0 76 42
91 70 13 24 3 50 -20 50 -9 0 -30 -10 -45 -22 l-28 -22 7 29 c12 46 12 47 -1
52 -8 3 -15 -10 -19 -36z m89 -38 c-9 -26 -44 -63 -60 -63 -21 0 -15 29 12 55
29 30 57 34 48 8z"/>
<path d="M3137 1973 c-3 -5 -8 -27 -12 -49 -5 -31 -13 -44 -31 -53 -35 -16
-36 -15 -34 27 3 60 1 72 -14 72 -11 0 -14 -20 -14 -92 -1 -64 2 -86 8 -71 11
26 46 47 66 39 9 -4 14 -21 14 -51 0 -62 13 -56 28 13 20 99 24 172 7 172 -7
0 -16 -3 -18 -7z"/>
<path d="M3450 1970 c0 -5 5 -10 10 -10 6 0 10 5 10 10 0 6 -4 10 -10 10 -5 0
-10 -4 -10 -10z"/>
<path d="M2650 1929 c0 -5 5 -7 10 -4 6 3 10 8 10 11 0 2 -4 4 -10 4 -5 0 -10
-5 -10 -11z"/>
<path d="M2179 1908 c-2 -7 -4 -39 -4 -72 0 -46 4 -61 18 -70 15 -9 23 -6 48
22 16 18 29 39 29 47 0 8 9 19 19 25 18 9 20 6 23 -27 2 -30 7 -39 25 -41 16
-2 26 5 37 26 31 60 42 56 38 -12 -3 -51 -1 -64 12 -69 11 -4 21 3 31 23 21
41 18 50 -6 20 -17 -21 -20 -22 -15 -5 3 11 8 41 12 68 6 42 4 47 -13 47 -11
0 -32 -13 -48 -30 -37 -39 -45 -38 -42 6 1 22 -3 39 -10 41 -7 3 -13 -2 -13
-10 0 -17 -43 -32 -48 -17 -12 35 -85 56 -93 28z m65 -20 c14 -24 1 -34 -19
-14 -9 9 -21 14 -26 11 -11 -7 -12 8 -2 19 11 11 35 3 47 -16z m-4 -77 c-12
-23 -40 -29 -40 -8 0 17 12 33 30 39 20 7 24 -6 10 -31z"/>
<path d="M2572 1908 c-7 -7 -22 -13 -34 -13 -30 0 -66 -70 -60 -118 2 -20 8
-37 12 -37 4 0 18 27 30 59 12 33 30 67 41 77 18 16 19 16 19 -6 0 -19 2 -20
15 -10 19 15 19 34 2 49 -10 8 -17 7 -25 -1z"/>
<path d="M2730 1878 c-11 -12 -20 -26 -20 -30 0 -5 -8 -25 -17 -46 l-17 -37
-6 60 c-6 74 -30 83 -44 17 -15 -70 23 -118 63 -79 10 10 14 9 22 -5 14 -25
23 -23 63 12 32 29 35 29 41 11 8 -27 29 -42 48 -36 8 4 30 25 48 48 l34 42
-42 -33 c-44 -35 -63 -35 -63 -1 0 12 7 19 18 19 44 0 69 70 28 78 -19 4 -66
-34 -66 -54 0 -13 -65 -74 -80 -74 -18 0 -11 67 10 91 10 13 19 18 20 12 0
-22 20 -14 20 7 0 27 -33 26 -60 -2z m160 -7 c0 -13 -29 -35 -37 -28 -7 8 15
37 28 37 5 0 9 -4 9 -9z"/>
<path d="M3035 1753 c9 -37 25 -53 25 -26 0 29 -10 53 -22 53 -6 0 -7 -11 -3
-27z"/>
<path d="M1848 1582 c9 -21 22 -39 27 -40 6 -1 18 16 27 38 15 35 15 40 2 40
-8 0 -12 -4 -9 -10 3 -5 0 -22 -8 -36 l-14 -27 -11 31 c-6 17 -8 33 -5 36 4 3
-1 6 -10 6 -15 0 -15 -3 1 -38z"/>
<path d="M1938 1575 c-2 -26 1 -45 7 -45 5 0 10 20 10 45 1 58 -12 58 -17 0z"/>
<path d="M1993 1613 c-22 -8 -14 -33 12 -43 26 -10 34 -30 12 -30 -7 0 -18 5
-25 12 -9 9 -12 9 -12 -3 0 -20 56 -24 64 -4 3 10 -5 20 -25 31 -22 11 -28 19
-21 26 8 8 16 7 27 -2 8 -7 15 -8 15 -2 0 8 -26 25 -33 21 -1 0 -8 -3 -14 -6z"/>
<path d="M2065 1575 c0 -25 5 -45 10 -45 6 0 10 20 10 45 0 25 -4 45 -10 45
-5 0 -10 -20 -10 -45z"/>
<path d="M2110 1610 c0 -5 7 -7 16 -3 14 5 16 0 12 -35 -2 -25 1 -42 7 -42 6
0 9 16 7 40 -4 38 10 56 21 28 3 -8 6 -6 6 5 1 13 -7 17 -34 17 -19 0 -35 -4
-35 -10z"/>
<path d="M2265 1575 c0 -39 3 -45 21 -45 43 0 62 60 25 80 -37 19 -47 13 -46
-35z m48 13 c13 -20 2 -48 -18 -48 -11 0 -15 10 -15 36 0 37 14 42 33 12z"/>
<path d="M2355 1575 c0 -25 5 -45 10 -45 6 0 10 20 10 45 0 25 -4 45 -10 45
-5 0 -10 -20 -10 -45z"/>
<path d="M2407 1613 c-14 -14 -6 -34 18 -43 14 -5 25 -14 25 -20 0 -14 -33
-13 -48 2 -9 9 -12 9 -12 -3 0 -23 64 -20 68 3 2 12 -5 19 -22 24 -29 7 -32
14 -14 32 7 7 8 12 2 12 -6 0 -14 -3 -17 -7z"/>
<path d="M2492 1608 c-7 -7 -12 -25 -12 -40 0 -21 6 -29 26 -34 14 -4 30 -2
35 3 5 5 -2 9 -19 8 -22 0 -28 5 -30 26 -4 30 22 46 44 28 9 -7 14 -8 14 -1 0
9 -22 22 -39 22 -4 0 -12 -5 -19 -12z"/>
<path d="M2586 1607 c-22 -16 -18 -55 7 -71 39 -24 79 44 41 71 -10 7 -21 13
-24 13 -3 0 -14 -6 -24 -13z m44 -12 c19 -23 8 -50 -20 -50 -16 0 -26 6 -28
18 -4 18 14 47 28 47 4 0 13 -7 20 -15z"/>
<path d="M2672 1613 c2 -5 10 -25 18 -45 17 -45 25 -47 38 -10 5 15 13 35 17
45 4 9 3 17 -3 17 -5 0 -13 -17 -17 -37 -6 -35 -8 -37 -21 -18 -8 10 -14 27
-14 37 0 10 -5 18 -11 18 -6 0 -9 -3 -7 -7z"/>
<path d="M2775 1575 c0 -44 1 -45 33 -45 17 0 32 4 32 9 0 4 -11 6 -25 3 -29
-5 -36 24 -7 31 16 4 16 5 0 6 -10 0 -18 8 -18 17 0 12 6 15 26 10 17 -5 23
-3 19 4 -3 5 -18 10 -33 10 -25 0 -27 -3 -27 -45z"/>
<path d="M2855 1575 c0 -29 4 -45 12 -45 7 0 10 7 7 15 -4 8 -1 15 5 15 7 0
14 -7 17 -15 4 -8 10 -15 16 -15 5 0 6 5 2 12 -5 7 -7 26 -6 43 1 27 0 28 -8
8 -5 -13 -14 -23 -20 -23 -14 0 -13 37 3 43 6 3 3 6 -8 6 -17 1 -20 -5 -20
-44z"/>
<path d="M2994 1604 c-3 -11 -9 -26 -14 -35 -12 -23 2 -39 31 -37 16 1 25 8
25 19 0 10 -3 17 -6 17 -17 -1 -21 4 -11 16 9 10 8 16 -4 26 -12 10 -16 9 -21
-6z m21 -3 c3 -5 1 -12 -5 -16 -5 -3 -10 1 -10 9 0 18 6 21 15 7z m-5 -46 c10
-12 10 -15 -4 -15 -9 0 -16 7 -16 15 0 8 2 15 4 15 2 0 9 -7 16 -15z"/>
<path d="M3105 1575 c0 -44 1 -45 33 -45 17 0 32 4 32 9 0 4 -11 6 -25 3 -29
-5 -36 24 -7 31 16 4 16 5 0 6 -10 0 -18 8 -18 17 0 12 6 15 26 10 17 -5 23
-3 19 4 -3 5 -18 10 -33 10 -25 0 -27 -3 -27 -45z"/>
<path d="M3198 1597 l22 -23 -20 -22 c-17 -18 -18 -22 -5 -22 8 0 15 7 15 16
0 9 6 14 13 11 6 -2 11 -10 10 -16 -2 -6 6 -11 17 -11 20 0 20 0 0 20 -19 19
-19 22 -4 45 9 14 12 25 7 25 -6 0 -15 -10 -21 -22 l-11 -23 -7 23 c-3 12 -13
22 -22 22 -12 0 -11 -5 6 -23z"/>
<path d="M3285 1575 c0 -29 4 -45 12 -45 7 0 10 6 7 14 -3 8 3 16 15 19 25 6
28 42 5 51 -33 12 -39 6 -39 -39z m43 12 c2 -10 -3 -17 -12 -17 -10 0 -16 9
-16 21 0 24 23 21 28 -4z"/>
<path d="M3365 1575 c0 -44 1 -45 33 -45 17 0 32 4 32 9 0 4 -12 6 -26 3 -25
-5 -26 -3 -22 37 2 24 -1 41 -7 41 -5 0 -10 -20 -10 -45z"/>
<path d="M3455 1600 c-25 -28 -7 -70 30 -70 37 0 55 42 30 70 -10 11 -23 20
-30 20 -7 0 -20 -9 -30 -20z m54 -7 c11 -21 -3 -53 -24 -53 -25 0 -37 36 -19
54 20 21 31 20 43 -1z"/>
<path d="M3545 1575 c0 -29 4 -45 12 -45 7 0 10 7 7 15 -8 21 16 19 33 -2 13
-17 13 -16 4 3 -7 15 -7 24 1 32 15 15 -8 42 -36 42 -18 0 -21 -6 -21 -45z
m50 15 c0 -8 -8 -16 -17 -18 -13 -2 -18 3 -18 18 0 15 5 20 18 18 9 -2 17 -10
17 -18z"/>
<path d="M3635 1575 c0 -44 1 -45 33 -45 17 0 32 4 32 9 0 4 -11 6 -25 3 -29
-5 -36 24 -7 31 16 4 16 5 0 6 -10 0 -18 8 -18 17 0 12 6 15 26 10 17 -5 23
-3 19 4 -3 5 -18 10 -33 10 -25 0 -27 -3 -27 -45z"/>
<path d="M2445 1600 c3 -5 8 -10 11 -10 2 0 4 5 4 10 0 6 -5 10 -11 10 -5 0
-7 -4 -4 -10z"/>
</g>
</svg>
